<svg xmlns="http://www.w3.org/2000/svg" viewBox="0 0 552.16 439.57"><defs><style>.cls-1{fill:#fff;}</style></defs><title>Asset 3</title><g id="Layer_2" data-name="Layer 2"><g id="Layer_1-2" data-name="Layer 1"><path class="cls-1" d="M372,61.45c-.53-.51-1.06-1-1.62-1.54L345.31,85.8l1.2,1.14a183.55,183.55,0,0,1,50.16,83.27h37.26A219.55,219.55,0,0,0,372,61.45ZM219.79,0A218.88,218.88,0,0,0,71.19,58l-1.06,1L95.62,84.57c.35-.35.72-.69,1.09-1a183.32,183.32,0,0,1,242.88-2.87l25.15-25.92A218.55,218.55,0,0,0,219.79,0ZM98.06,69.86a8.16,8.16,0,1,1,7.13-9.07A8.16,8.16,0,0,1,98.06,69.86ZM396.7,269.34s0,.08,0,.11c-1,3.59-2.13,7.13-3.35,10.62s-2.63,7.13-4,10.62-3.17,7.13-4.92,10.62-3.67,7.13-5.72,10.62S374.32,319,372,322.53a183.64,183.64,0,0,1-152.19,81C118.5,403.49,36.11,321,36.11,219.79A183,183,0,0,1,89.95,90L64.48,64.45A218.93,218.93,0,0,0,0,219.79C0,341,98.6,439.57,219.79,439.57c84.12,0,157.35-47.48,194.24-117,1.89-3.49,3.62-7,5.3-10.62s3.14-7,4.58-10.62,2.74-7,3.94-10.62,2.32-7.05,3.33-10.62,1.92-7.05,2.74-10.62c0,0,0-.08,0-.11Z"/><polygon class="cls-1" points="55.79 168.04 76.73 168.04 76.73 206.84 108.97 168.04 132.97 168.04 102.41 204.49 133.39 256.87 109.52 256.87 87.89 220.03 76.73 233.36 76.73 256.87 55.79 256.87 55.79 168.04"/><path class="cls-1" d="M134.15,241.13c0-11.54,7.74-17.94,23.32-17.94h10.76v-1.78c0-5.67-2.36-8.4-8.29-8.4-5.72,0-8,2.41-8.18,6.19h-16c.9-12.17,8.74-18.36,24.89-18.36,16.59,0,24.21,6.5,24.21,20.78v35.26h-14l-.56-6.82c-4,5.35-9.86,8.08-17.6,8.08-11.55,0-18.5-6.09-18.5-17m34.08-1.37v-6.29H160.5c-7.51,0-10,2.41-10,6.4S153,246,157.69,246a11.43,11.43,0,0,0,10.54-6.19"/><path class="cls-1" d="M197,202.1h14.13l.67,10.18c2.24-7.77,6.84-11.23,14.91-11.23h4.37v14.48H228c-8.63,0-12.78,3-14.35,10.7v30.64H197Z"/><polygon class="cls-1" points="241.26 168.04 306.29 168.04 306.29 184.89 262.19 184.89 262.19 203.31 299.31 203.31 299.31 220.03 262.19 220.03 262.19 240.02 307.69 240.02 307.69 256.87 241.26 256.87 241.26 168.04"/><path class="cls-1" d="M332.78,250.26l-.45,6.61H318.21v-76.6H334.8v26.23c3.93-3.88,8.86-5.67,15.13-5.67,13.34,0,20.85,7.77,20.85,22.56v12.28c0,14.8-7.51,22.45-20.85,22.45-7.4,0-12.78-2.41-17.15-7.87m21.41-14.69V223.4c0-7.14-2.8-10-8.07-10s-9,2.83-11.32,8.39v15.42c2.36,5.46,6.05,8.29,11.21,8.29,5.38,0,8.18-2.94,8.18-10"/><path class="cls-1" d="M381.32,181.12h17.49v13.22H381.32Zm.45,21h16.59v54.77H381.77Z"/><path class="cls-1" d="M411.37,202.1h14.13l.45,6.61c4.48-5.45,9.86-7.87,17-7.87,12.11,0,18.39,6.72,18.39,19.73v36.31H444.77V221.93c0-5.14-2-7.66-6.5-7.66s-7.85,2.41-10.31,7.24v35.36H411.37Z"/><path class="cls-1" d="M477.22,168H516c23.31,0,32.52,8.23,32.52,28.09,0,14.5-5,22.86-16.89,26.13l20.52,34.62H528.29l-18.84-32.79h-11.3v32.79H477.22Zm36.56,39.32c10.19,0,13.82-3.27,13.82-11.24s-3.63-11.37-13.82-11.37H498.15v22.6Z"/></g></g></svg>